<svg id="Ebene_1" data-name="Ebene 1" xmlns="http://www.w3.org/2000/svg" viewBox="0 0 33 31">
  <defs>
    <style>
      .cls-1{fill:#fff}
    </style>
  </defs>
  <path class="cls-1" d="M21.36 28h-9.18a1 1 0 00-.18 0 10.63 10.63 0 01-2.69-.31 6.55 6.55 0 01-2.74-1.36 6.68 6.68 0 01-2.16-3.36A11.84 11.84 0 014 19.75a1.81 1.81 0 00-.05-.31v-8.56a.43.43 0 00.05-.13c0-.75.09-1.49.16-2.24a7 7 0 01.69-2.33 6.46 6.46 0 011.49-2A6.28 6.28 0 018.15 3a9.48 9.48 0 013.72-.68 1.19 1.19 0 00.26 0h9.33a.44.44 0 00.15 0l1.88.16a6.75 6.75 0 012.28.68 6.59 6.59 0 012.16 1.73 6.79 6.79 0 011.37 2.8 14.09 14.09 0 01.31 3.17v1a.86.86 0 00.05.23v6a.29.29 0 00-.05.13c0 .78 0 1.57-.06 2.35a7.21 7.21 0 01-.11 1.23 7.42 7.42 0 01-1.58 3.63 6.76 6.76 0 01-2.51 1.83 9.57 9.57 0 01-3.77.67.86.86 0 00-.22.07zm-15.1-8.71c0 .34 0 .68.08 1A16.25 16.25 0 006.58 22a4.15 4.15 0 001.85 2.75 5.53 5.53 0 002.65.82c.66.06 1.33.1 2 .1 3 0 6 .09 9.06-.09a7.18 7.18 0 002.29-.46 4.18 4.18 0 002.35-2.4 9.54 9.54 0 00.49-3.51v-8.73A8.85 8.85 0 0027 8.23a4.3 4.3 0 00-1.76-2.6 5.38 5.38 0 00-2.68-.86c-.74-.07-1.5-.09-2.25-.11H12.63c-.62 0-1.23.06-1.84.1a5 5 0 00-2 .55A4.22 4.22 0 006.72 7.8a9.67 9.67 0 00-.4 2.62c0 .59-.05 1.2-.05 1.8q-.01 3.53-.01 7.07z"/>
  <path class="cls-1" d="M23.4 15.16A6.63 6.63 0 1117 8.54a6.59 6.59 0 016.4 6.62zm-6.63 4.23a4.25 4.25 0 10-4.23-4.46 4.23 4.23 0 004.23 4.46zM25.18 8.3a1.55 1.55 0 01-1.56 1.57 1.57 1.57 0 11.1-3.13 1.56 1.56 0 011.46 1.56z"/>
</svg>
