<svg version="1.1" id="Ebene_1" xmlns="http://www.w3.org/2000/svg" x="0" y="0" viewBox="0 0 33 31" xml:space="preserve">
  <style>
    .st0{fill:#fff}
  </style>
  <path class="st0" d="M7.4 7.6c-.3 0-.4.1-.5.2-.1.2-.1.4 0 .6l2.6 4.5-4.1 7.2c-.1.2-.1.4 0 .6.1.2.3.3.5.3h3.8c.6 0 .9-.4 1-.7 0 0 4-7.1 4.2-7.3l-2.6-4.6c-.2-.3-.5-.7-1.1-.7l-3.8-.1zM23.5 2.3c-.6 0-.8.4-1 .7 0 0-8.3 14.7-8.6 15.2l5.5 10c.2.3.5.7 1.1.7h3.8c.2 0 .4-.1.5-.2.1-.2.1-.4 0-.6l-5.4-9.9 8.5-15c.1-.2.1-.4 0-.6-.1-.2-.3-.2-.5-.2l-3.9-.1z"/>
</svg>
