<svg version="1.1" id="Ebene_1" xmlns="http://www.w3.org/2000/svg" x="0" y="0" viewBox="0 0 33 31" xml:space="preserve">
  <path d="M12.6 26.4c9.4 0 14.6-7.8 14.6-14.6v-.7c1-.7 1.9-1.6 2.6-2.7-.9.4-1.9.7-3 .8 1.1-.6 1.9-1.6 2.3-2.8-1 .6-2.1 1-3.3 1.2-.9-1-2.3-1.6-3.7-1.6-2.8 0-5.1 2.3-5.1 5.1 0 .4.1.8.1 1.2C12.8 12.1 9 10 6.5 6.9c-.5.8-.7 1.7-.7 2.6 0 1.8.9 3.4 2.3 4.3-.8 0-1.6-.3-2.3-.6v.1c0 2.5 1.8 4.6 4.1 5-.4.1-.9.2-1.4.2-.3 0-.7 0-1-.1.7 2 2.6 3.5 4.8 3.6-1.8 1.4-4 2.2-6.4 2.2-.4 0-.8 0-1.2-.1 2.3 1.4 5 2.3 7.9 2.3" id="Logo__x2014__FIXED"/>
</svg>
